<svg id="Layer_1" data-name="Layer 1" xmlns="http://www.w3.org/2000/svg" viewBox="0 0 146.92 146.07"><defs><style>.cls-1{fill:#6fb744;}.cls-2{fill:#00a8d3;}.cls-3{fill:#e76b24;}.cls-4{fill:#0ba9e2;}</style></defs><path class="cls-1" d="M53.57,136V120h4.85l2.91,10.94L64.21,120h4.86v16h-3V123.4L62.88,136H59.76L56.58,123.4V136Z"/><path class="cls-1" d="M19.27,136.13v-16h6.82a11.64,11.64,0,0,1,3.74.43,3.69,3.69,0,0,1,1.87,1.54,4.61,4.61,0,0,1,.7,2.53,4.31,4.31,0,0,1-1.06,3A5.06,5.06,0,0,1,28.16,129a7.71,7.71,0,0,1,1.74,1.35A18.62,18.62,0,0,1,31.74,133l2,3.13H29.83l-2.35-3.49a23,23,0,0,0-1.7-2.36,2.5,2.5,0,0,0-1-.67,5.36,5.36,0,0,0-1.63-.18h-.66v6.7Zm3.24-9.26h2.4a12.3,12.3,0,0,0,2.91-.2,1.74,1.74,0,0,0,.91-.68,2.07,2.07,0,0,0,.33-1.2,1.92,1.92,0,0,0-.43-1.31,2,2,0,0,0-1.22-.63c-.27,0-1.05-.06-2.37-.06H22.51Z"/><path class="cls-2" d="M18.93,143.52v-4.65h2A3.2,3.2,0,0,1,22,139a1,1,0,0,1,.54.44,1.32,1.32,0,0,1,.2.73,1.28,1.28,0,0,1-.3.87,1.48,1.48,0,0,1-.92.43,2.28,2.28,0,0,1,.5.39,4.78,4.78,0,0,1,.53.76l.57.9H22l-.68-1a5.63,5.63,0,0,0-.5-.68.66.66,0,0,0-.28-.2,1.7,1.7,0,0,0-.47,0h-.19v1.94Zm.94-2.68h.69a3.47,3.47,0,0,0,.85-.06.47.47,0,0,0,.26-.2.6.6,0,0,0,.1-.34.56.56,0,0,0-.13-.38.57.57,0,0,0-.35-.19H19.87Z"/><path class="cls-2" d="M24.24,143.52l-1.06-3.37H24l.63,2.21.59-2.21h.86l.56,2.21.64-2.21h.88l-1.08,3.37h-.86l-.58-2.16-.57,2.16Z"/><path class="cls-2" d="M29.34,141.18l-.81-.14a1.23,1.23,0,0,1,.47-.73,1.76,1.76,0,0,1,1-.23,2.09,2.09,0,0,1,.89.14.86.86,0,0,1,.41.36,1.81,1.81,0,0,1,.12.8v1a3.51,3.51,0,0,0,0,.65,1.88,1.88,0,0,0,.16.45h-.88a2.42,2.42,0,0,1-.09-.26.29.29,0,0,0,0-.1,1.92,1.92,0,0,1-.49.33,1.47,1.47,0,0,1-.56.11,1.15,1.15,0,0,1-.82-.28,1,1,0,0,1-.3-.72,1,1,0,0,1,.14-.51.9.9,0,0,1,.38-.34,3.06,3.06,0,0,1,.71-.21,4.75,4.75,0,0,0,.87-.22v-.08a.44.44,0,0,0-.13-.37.76.76,0,0,0-.48-.11.65.65,0,0,0-.37.09A.63.63,0,0,0,29.34,141.18Zm1.19.72A4.39,4.39,0,0,1,30,142a1.6,1.6,0,0,0-.49.16.35.35,0,0,0-.17.31.4.4,0,0,0,.14.32.45.45,0,0,0,.35.14.74.74,0,0,0,.46-.16.53.53,0,0,0,.21-.29,1.46,1.46,0,0,0,0-.44Z"/><path class="cls-2" d="M35.35,143.52h-.89V141.8a2.47,2.47,0,0,0-.06-.7.52.52,0,0,0-.18-.25.54.54,0,0,0-.31-.09.68.68,0,0,0-.42.13.59.59,0,0,0-.25.33,2.74,2.74,0,0,0-.07.78v1.52h-.89v-3.37h.83v.5a1.34,1.34,0,0,1,1.11-.57,1.4,1.4,0,0,1,.54.1,1,1,0,0,1,.37.27,1,1,0,0,1,.17.38,3,3,0,0,1,.05.6Z"/><path class="cls-2" d="M39.35,143.52h-.83V143a1.43,1.43,0,0,1-.49.43,1.29,1.29,0,0,1-.56.14,1.3,1.3,0,0,1-1-.47,2.3,2.3,0,0,1,0-2.61,1.34,1.34,0,0,1,1-.44,1.26,1.26,0,0,1,1,.47v-1.68h.89ZM37,141.77a1.56,1.56,0,0,0,.15.78.66.66,0,0,0,.6.34.63.63,0,0,0,.52-.26,1.15,1.15,0,0,0,.22-.78,1.33,1.33,0,0,0-.21-.84.7.7,0,0,0-1.07,0A1.17,1.17,0,0,0,37,141.77Z"/><path class="cls-2" d="M40.89,141.18l-.81-.14a1.28,1.28,0,0,1,.47-.73,1.81,1.81,0,0,1,1-.23,2,2,0,0,1,.89.14.82.82,0,0,1,.41.36,1.81,1.81,0,0,1,.12.8v1a3.33,3.33,0,0,0,0,.65,1.53,1.53,0,0,0,.16.45h-.89c0-.06-.05-.14-.08-.26a.43.43,0,0,1,0-.1,2.11,2.11,0,0,1-.49.33,1.51,1.51,0,0,1-.56.11,1.13,1.13,0,0,1-.82-.28,1,1,0,0,1-.3-.72,1,1,0,0,1,.14-.51.9.9,0,0,1,.38-.34,2.91,2.91,0,0,1,.71-.21,4.75,4.75,0,0,0,.87-.22v-.08a.47.47,0,0,0-.13-.37.76.76,0,0,0-.48-.11.65.65,0,0,0-.37.09A.71.71,0,0,0,40.89,141.18Zm1.2.72a4.66,4.66,0,0,1-.55.14,1.51,1.51,0,0,0-.48.16.36.36,0,0,0-.18.31.43.43,0,0,0,.14.32.47.47,0,0,0,.36.14.76.76,0,0,0,.46-.16.53.53,0,0,0,.21-.29,1.89,1.89,0,0,0,0-.44Z"/><path class="cls-2" d="M53.47,143.52v-4.65h1.41l.84,3.17.84-3.17H58v4.65h-.88v-3.66l-.92,3.66h-.9l-.93-3.66v3.66Z"/><path class="cls-2" d="M60.84,142.45l.89.15a1.39,1.39,0,0,1-.54.74,1.56,1.56,0,0,1-.92.26A1.5,1.5,0,0,1,59,143a1.91,1.91,0,0,1-.34-1.17,1.87,1.87,0,0,1,.44-1.31,1.42,1.42,0,0,1,1.11-.47,1.5,1.5,0,0,1,1.19.49,2.22,2.22,0,0,1,.41,1.53H59.55a.88.88,0,0,0,.21.61.67.67,0,0,0,.52.22.58.58,0,0,0,.35-.11A.7.7,0,0,0,60.84,142.45Zm.06-.9a.9.9,0,0,0-.2-.59.65.65,0,0,0-1,0,.83.83,0,0,0-.19.58Z"/><path class="cls-2" d="M65.57,143.52h-.89V141.8a3.14,3.14,0,0,0-.05-.7.48.48,0,0,0-.19-.25.54.54,0,0,0-.31-.09.67.67,0,0,0-.41.13.61.61,0,0,0-.26.33,3.18,3.18,0,0,0-.07.78v1.52H62.5v-3.37h.83v.5a1.37,1.37,0,0,1,1.11-.57,1.33,1.33,0,0,1,.54.1.89.89,0,0,1,.37.27,1.21,1.21,0,0,1,.18.38,3.12,3.12,0,0,1,0,.6Z"/><path class="cls-2" d="M68,140.15v.71h-.6v1.36a4.41,4.41,0,0,0,0,.48.2.2,0,0,0,.08.12.24.24,0,0,0,.15,0,1,1,0,0,0,.36-.09l.08.7a2,2,0,0,1-.71.13,1.18,1.18,0,0,1-.43-.08.75.75,0,0,1-.29-.21.8.8,0,0,1-.12-.35,4.07,4.07,0,0,1,0-.63v-1.47h-.41v-.71h.41v-.67l.9-.52v1.19Z"/><path class="cls-2" d="M69.31,141.18,68.5,141a1.28,1.28,0,0,1,.47-.73,1.76,1.76,0,0,1,1-.23,2.06,2.06,0,0,1,.89.14.86.86,0,0,1,.41.36,1.81,1.81,0,0,1,.12.8v1a3.51,3.51,0,0,0,0,.65,1.88,1.88,0,0,0,.16.45h-.88l-.09-.26a.29.29,0,0,0,0-.1,1.76,1.76,0,0,1-.49.33,1.42,1.42,0,0,1-.55.11,1.13,1.13,0,0,1-.82-.28,1,1,0,0,1-.3-.72.89.89,0,0,1,.14-.51.84.84,0,0,1,.38-.34,2.91,2.91,0,0,1,.71-.21,4.82,4.82,0,0,0,.86-.22v-.08a.47.47,0,0,0-.12-.37.8.8,0,0,0-.48-.11.63.63,0,0,0-.37.09A.71.71,0,0,0,69.31,141.18Zm1.19.72A3.94,3.94,0,0,1,70,142a1.6,1.6,0,0,0-.49.16.37.37,0,0,0-.17.31.43.43,0,0,0,.14.32.45.45,0,0,0,.36.14.76.76,0,0,0,.46-.16.66.66,0,0,0,.21-.29,2.08,2.08,0,0,0,0-.44Z"/><path class="cls-2" d="M72.26,143.52v-4.65h.89v4.65Z"/><path class="cls-2" d="M84.71,143.06v-4.65h.94v1.83h1.84v-1.83h.94v4.65h-.94v-2H85.65v2Z"/><path class="cls-2" d="M91.34,142l.89.15a1.39,1.39,0,0,1-.54.74,1.76,1.76,0,0,1-2.22-.31,1.91,1.91,0,0,1-.34-1.17,1.89,1.89,0,0,1,.44-1.31,1.46,1.46,0,0,1,1.11-.47,1.5,1.5,0,0,1,1.19.49,2.29,2.29,0,0,1,.41,1.53H90.05a.84.84,0,0,0,.21.61.67.67,0,0,0,.52.22.52.52,0,0,0,.35-.11A.7.7,0,0,0,91.34,142Zm0-.9a.87.87,0,0,0-.19-.59.65.65,0,0,0-.47-.2.63.63,0,0,0-.48.21.83.83,0,0,0-.19.58Z"/><path class="cls-2" d="M93.67,140.72l-.8-.14a1.27,1.27,0,0,1,.46-.73,1.81,1.81,0,0,1,1-.23,2.19,2.19,0,0,1,.89.14.78.78,0,0,1,.41.36,1.81,1.81,0,0,1,.12.8v1a3.33,3.33,0,0,0,0,.65,1.88,1.88,0,0,0,.16.45h-.89c0-.06,0-.14-.08-.26a.43.43,0,0,1,0-.1,1.69,1.69,0,0,1-.49.33,1.47,1.47,0,0,1-.56.11,1.15,1.15,0,0,1-.82-.28,1,1,0,0,1-.3-.72,1,1,0,0,1,.14-.51,1,1,0,0,1,.38-.34,3.06,3.06,0,0,1,.71-.21,5,5,0,0,0,.87-.21v-.09a.44.44,0,0,0-.13-.37.76.76,0,0,0-.48-.11.65.65,0,0,0-.37.09A.76.76,0,0,0,93.67,140.72Zm1.2.73-.55.13a1.61,1.61,0,0,0-.48.16.36.36,0,0,0-.18.31.45.45,0,0,0,.14.33.52.52,0,0,0,.36.13.76.76,0,0,0,.46-.16.53.53,0,0,0,.21-.29,1.46,1.46,0,0,0,0-.44Z"/><path class="cls-2" d="M96.62,143.06v-4.65h.89v4.65Z"/><path class="cls-2" d="M100,139.69v.71h-.61v1.36a3.32,3.32,0,0,0,0,.48.2.2,0,0,0,.08.12.24.24,0,0,0,.15,0,1.4,1.4,0,0,0,.36-.08l.08.69a1.8,1.8,0,0,1-.71.13,1.18,1.18,0,0,1-.43-.08.59.59,0,0,1-.29-.21.8.8,0,0,1-.12-.35,4.07,4.07,0,0,1,0-.63V140.4h-.41v-.71h.41V139l.89-.52v1.19Z"/><path class="cls-2" d="M101.48,138.41v1.71a1.33,1.33,0,0,1,1-.5,1.43,1.43,0,0,1,.56.11,1,1,0,0,1,.37.29,1.1,1.1,0,0,1,.17.4,3.42,3.42,0,0,1,0,.67v2h-.89v-1.78a2.88,2.88,0,0,0,0-.67.58.58,0,0,0-.18-.23.67.67,0,0,0-.33-.08.74.74,0,0,0-.39.11.64.64,0,0,0-.26.32,2.11,2.11,0,0,0-.08.65v1.68h-.89v-4.65Z"/><path class="cls-2" d="M116.85,143.21v-4.65h1.51a5.29,5.29,0,0,1,1.12.07,1.2,1.2,0,0,1,.67.45,1.45,1.45,0,0,1,.27.91,1.59,1.59,0,0,1-.16.72,1.35,1.35,0,0,1-.39.46,1.52,1.52,0,0,1-.49.22,6,6,0,0,1-1,.06h-.61v1.76Zm.94-3.87v1.32h.52a2.42,2.42,0,0,0,.74-.07.66.66,0,0,0,.29-.23.61.61,0,0,0,.11-.36.6.6,0,0,0-.15-.42.68.68,0,0,0-.38-.21,4.73,4.73,0,0,0-.67,0Z"/><path class="cls-2" d="M122,143.21h-.89v-3.37H122v.48a1.41,1.41,0,0,1,.38-.45.74.74,0,0,1,.39-.11,1.18,1.18,0,0,1,.59.17l-.28.78a.77.77,0,0,0-.42-.15.58.58,0,0,0-.32.1.79.79,0,0,0-.2.38,5.12,5.12,0,0,0-.08,1.13Z"/><path class="cls-2" d="M124.38,140.87l-.81-.15A1.18,1.18,0,0,1,124,140a1.68,1.68,0,0,1,1-.24,2.26,2.26,0,0,1,.89.14,1,1,0,0,1,.41.36,1.84,1.84,0,0,1,.12.8v1a3.57,3.57,0,0,0,0,.66,1.88,1.88,0,0,0,.16.45h-.88a2.78,2.78,0,0,1-.09-.27.41.41,0,0,0,0-.1,1.51,1.51,0,0,1-.49.33,1.3,1.3,0,0,1-.56.11,1.15,1.15,0,0,1-.82-.28,1,1,0,0,1-.3-.71,1,1,0,0,1,.14-.51.84.84,0,0,1,.38-.34,3.06,3.06,0,0,1,.71-.21,4.75,4.75,0,0,0,.87-.22v-.09a.46.46,0,0,0-.13-.37.76.76,0,0,0-.48-.11.58.58,0,0,0-.37.1A.59.59,0,0,0,124.38,140.87Zm1.19.72c-.11,0-.3.08-.54.14a1.67,1.67,0,0,0-.49.15.36.36,0,0,0-.17.32.41.41,0,0,0,.14.32.48.48,0,0,0,.35.14.8.8,0,0,0,.46-.16.52.52,0,0,0,.21-.3,1.38,1.38,0,0,0,0-.43Z"/><path class="cls-2" d="M130.26,140.83l-.88.16a.55.55,0,0,0-.2-.39.59.59,0,0,0-.4-.14.69.69,0,0,0-.54.23,1.21,1.21,0,0,0-.19.77,1.35,1.35,0,0,0,.2.85.67.67,0,0,0,.54.25.56.56,0,0,0,.41-.15.8.8,0,0,0,.23-.49l.88.15a1.57,1.57,0,0,1-.53.91,1.62,1.62,0,0,1-1,.3,1.53,1.53,0,0,1-1.18-.46,1.77,1.77,0,0,1-.44-1.29,1.83,1.83,0,0,1,.44-1.3,1.56,1.56,0,0,1,1.19-.47,1.61,1.61,0,0,1,1,.27A1.41,1.41,0,0,1,130.26,140.83Z"/><path class="cls-2" d="M132.49,139.84v.71h-.61v1.36a4.65,4.65,0,0,0,0,.48.28.28,0,0,0,.08.11.24.24,0,0,0,.15,0,1,1,0,0,0,.36-.08l.08.69a1.76,1.76,0,0,1-.71.13,1,1,0,0,1-.43-.08.56.56,0,0,1-.28-.21.76.76,0,0,1-.13-.34,4.25,4.25,0,0,1,0-.63v-1.47h-.41v-.71H131v-.67l.9-.52v1.19Z"/><path class="cls-2" d="M133.1,139.38v-.82h.9v.82Zm0,3.83v-3.37h.9v3.37Z"/><path class="cls-2" d="M137.85,140.83,137,141a.63.63,0,0,0-.2-.39.62.62,0,0,0-.41-.14.67.67,0,0,0-.53.23,1.2,1.2,0,0,0-.2.77,1.41,1.41,0,0,0,.2.85.69.69,0,0,0,.54.25.6.6,0,0,0,.42-.15.86.86,0,0,0,.23-.49l.87.15a1.55,1.55,0,0,1-.52.91,1.65,1.65,0,0,1-1,.3,1.56,1.56,0,0,1-1.18-.46,2.13,2.13,0,0,1,0-2.59,1.83,1.83,0,0,1,2.18-.2A1.46,1.46,0,0,1,137.85,140.83Z"/><path class="cls-2" d="M140.48,142.14l.89.14a1.48,1.48,0,0,1-.55.75,1.56,1.56,0,0,1-.92.25,1.5,1.5,0,0,1-1.3-.57,1.94,1.94,0,0,1-.34-1.16,1.85,1.85,0,0,1,.44-1.31,1.45,1.45,0,0,1,1.11-.48,1.51,1.51,0,0,1,1.19.5,2.16,2.16,0,0,1,.41,1.52h-2.23a1,1,0,0,0,.21.62.71.71,0,0,0,.52.22.51.51,0,0,0,.35-.12A.67.67,0,0,0,140.48,142.14Zm.05-.91a.84.84,0,0,0-.2-.58.63.63,0,0,0-1,0,.8.8,0,0,0-.18.57Z"/><path class="cls-2" d="M108.37,140.05v-.68h.74v.68Zm0,3.16v-2.78h.74v2.78Z"/><path class="cls-2" d="M112.39,143.21h-.74v-1.42a2.37,2.37,0,0,0,0-.58.42.42,0,0,0-.16-.21.41.41,0,0,0-.25-.07.57.57,0,0,0-.34.1.58.58,0,0,0-.21.28,2.29,2.29,0,0,0-.06.64v1.26h-.73v-2.78h.68v.41a1.13,1.13,0,0,1,1.36-.38.69.69,0,0,1,.3.22.81.81,0,0,1,.15.31,2.81,2.81,0,0,1,0,.49Z"/><path class="cls-1" d="M84.71,136V120H88v6.31H94.3V120h3.24v16H94.3v-7H88v7Z"/><path class="cls-1" d="M116.85,135.89v-16h5.2a18.83,18.83,0,0,1,3.85.24,4.25,4.25,0,0,1,2.31,1.58,5,5,0,0,1,.93,3.12,5.24,5.24,0,0,1-.53,2.49,4.49,4.49,0,0,1-1.36,1.58,5,5,0,0,1-1.69.76,18.74,18.74,0,0,1-3.36.23h-2.11v6Zm3.24-13.33v4.55h1.77a8.38,8.38,0,0,0,2.57-.25,2.15,2.15,0,0,0,1-.79,2.19,2.19,0,0,0,.37-1.25,2.09,2.09,0,0,0-.52-1.44,2.21,2.21,0,0,0-1.3-.71,14.68,14.68,0,0,0-2.33-.11Z"/><path class="cls-3" d="M87.71,113.15c-4.81,2.27-7.81,2.35-12.64,2.35H74c-5.2,0-8.41-.07-13.58-2.35-9-4-16.81-11.82-16.81-8.64C43.6,109.38,58.18,116,74,116h1c14.8,0,28.46-6.65,28.46-11.52C103.46,101.33,96.15,109.19,87.71,113.15Z"/><path class="cls-4" d="M134.39,56.16c-.35-2.85-2.59-28.15-31.25-38A80.3,80.3,0,0,0,91,14.9h0a72.59,72.59,0,0,0-14-1.48l-.39-4.77L75,8.59l-.24,4.77h0v.05A73.58,73.58,0,0,0,59.11,14.9h0A80.44,80.44,0,0,0,47,18.13C18.35,28,16.1,53.31,15.76,56.16a1.68,1.68,0,0,0,0,.26,18.7,18.7,0,0,1,23.15-.21l1,0c12.64-7.73,28.87-2,33.6,0v7.49a1.33,1.33,0,0,0,2.65,0v-7.6c5-2.5,19.93-8.48,34,.14l1.05,0a18.72,18.72,0,0,1,23.16.21Zm-25.52-3.22c0-.1,0-.22-.06-.35-16.25-9-32.47-.06-33.48.51a1.08,1.08,0,0,0-.19,0c-1.65-.82-19.77-9.35-36.56-.34l-.2-.13c.2-1.93,4.85-27.44,25.72-34.14h0a34.26,34.26,0,0,1,11.1-1.65h0a29,29,0,0,1,8.75,1.4h0c18.67,5.93,24,29.47,24.86,34.38h0s0,.16.06.35,0,.36.06.45S108.88,53.17,108.87,52.94Z"/><path class="cls-3" d="M73.09,46.63a1.94,1.94,0,0,0,1-1.85c.1-1.5.07-2.24.07-3.8-.16,0-1.66-.17-2.88-.42A8.46,8.46,0,0,1,65,34a19.49,19.49,0,0,1-.36-3.13c-.07-1.58,0-2.53,0-4.11,0-1.21.32-1.69-.84-1.69a1.6,1.6,0,0,0-.42.05,5.86,5.86,0,0,0-2.79,3,8,8,0,0,0,.1,4.38,1.24,1.24,0,0,1-.19,1l-1.21,1.8c-.28.43-.57.85-.82,1.29a.59.59,0,0,0,.14.78,4.33,4.33,0,0,0,.94.58c.36.17.47.31.37.7a2,2,0,0,1-.1.32A.72.72,0,0,0,60,40l.34.27a2.12,2.12,0,0,0-.15.21.57.57,0,0,0,.18.84.61.61,0,0,1,.35.54c0,.34,0,.69,0,1a1.79,1.79,0,0,0,1.79,1.83l2.84.16a1.25,1.25,0,0,1,.37.09,2.71,2.71,0,0,1,1.07.89,3.5,3.5,0,0,1,.47,1.31c0,.26.15.32.39.32h2.91A5,5,0,0,0,71,47c.09-.11.32-.14.49-.17.35,0,.88-.1,1.23-.13C72.84,46.72,73,46.65,73.09,46.63Z"/><path class="cls-1" d="M89.83,23.91c-1.63.07-3.63.35-4.15,1.51a3.41,3.41,0,0,0-.32,1A17.44,17.44,0,0,0,85,29.13c-.14,2-.13,4-.31,6a4.88,4.88,0,0,1-5.38,4.06.39.39,0,0,1-.32-.39V26.64a2.09,2.09,0,0,1,1.81-1.94c.48-.08,1-.13,1.44-.2v-.82H72.09v.82c.47.07,1,.12,1.44.2a2.09,2.09,0,0,1,1.81,1.94V38.76a.39.39,0,0,1-.32.39,4.88,4.88,0,0,1-5.38-4.06c-.18-2-.18-4-.31-6a17.44,17.44,0,0,0-.39-2.69,3.39,3.39,0,0,0-.33-1c-.51-1.16-2.52-1.44-4.14-1.51H64a3.83,3.83,0,0,0-.67.08v.49l.61,0c1.16,0,1.73.47,1.76,1.68,0,1.59,0,3.17.06,4.75A20.89,20.89,0,0,0,66,33.63a7.23,7.23,0,0,0,5.6,5.81c1,.23,2.08.42,3.12.64.21,0,.4.11.56.15,0,1.56.08,3.07,0,4.57s-.42,2.66-3,2.79a1.78,1.78,0,0,0-.55,0v0H82.53l0,0a1.78,1.78,0,0,0-.55,0c-2.55-.13-2.88-1.34-3-2.79s0-3,0-4.57c.15,0,.35-.11.55-.15,1-.22,2.09-.41,3.13-.64a7.24,7.24,0,0,0,5.6-5.81,20.89,20.89,0,0,0,.29-2.73c.06-1.58,0-3.16.06-4.75,0-1.21.59-1.68,1.76-1.68l.61,0V24a3.83,3.83,0,0,0-.67-.08Z"/><rect class="cls-4" x="73.93" y="61.63" width="1.91" height="4.79" rx="0.96"/><circle class="cls-4" cx="46.84" cy="60.74" r="0.79"/><circle class="cls-4" cx="102.92" cy="61.15" r="0.79"/><path class="cls-3" d="M114.67,81.62c-.71-7.09-4.72-24-4.72-24s.28,4.87-2.52,22.54c-3,18.92-23.65,35.17-23.65,35.17s7.41-2.2,11.94-4,12.55-4.83,21.88-14.9c15.82-17.06,15.82-36.06,15.82-36.06C130.85,69.07,115.1,85.84,114.67,81.62Z"/><path class="cls-3" d="M121.17,62.92c-2.82-.66-5.86,1.84-6.78,5.6s.63,7.34,3.46,8,5.85-1.85,6.77-5.61S124,63.58,121.17,62.92Z"/><path class="cls-3" d="M40.74,80.42c-2.31-17.94-1.5-22.83-1.5-22.83s-2.73,17.89-5.55,24.76c-1.72,4.21-15-13.28-17.4-22A60.88,60.88,0,0,0,30.82,96.43c8.57,10.07,15.94,13.13,20.1,14.9A90.56,90.56,0,0,0,62.3,114.8S43.18,99.39,40.74,80.42Z"/><path class="cls-3" d="M28.36,64.49c-2.6.66-4,4.24-3.17,8s3.63,6.27,6.22,5.61,4-4.24,3.17-8S31,63.83,28.36,64.49Z"/><path class="cls-4" d="M64.18,80.9c-6.27-.45-17.34-20-17.34-20S47,95.39,74,115l-.46-54.15S67.18,81.12,64.18,80.9Z"/><path class="cls-4" d="M61.37,62.51c-2.65.34-4.42,3.53-3.95,7.12s3,6.24,5.62,5.9S67.45,72,67,68.41,64,62.17,61.37,62.51Z"/><path class="cls-4" d="M85,81.08c-3,.16-8.82-20.34-8.82-20.34L75.77,115c27-19.63,27.15-54.16,27.15-54.16S92,80.7,85,81.08Z"/><path class="cls-4" d="M88.19,63.21c-2.65-.34-5.16,2.3-5.63,5.89s1.31,6.79,4,7.13,5.16-2.3,5.62-5.9S90.83,63.55,88.19,63.21Z"/><circle class="cls-3" cx="16.29" cy="60.37" r="0.79"/><circle class="cls-3" cx="39.3" cy="58.2" r="0.79"/><circle class="cls-3" cx="109.82" cy="58.37" r="0.79"/><circle class="cls-3" cx="133.42" cy="60.37" r="0.79"/><path class="cls-2" d="M134.39,56.16c-.35-2.85-2.59-28.15-31.25-38A80.3,80.3,0,0,0,91,14.9h0a72.59,72.59,0,0,0-14-1.48l-.39-4.77L75,8.59l-.24,4.77h0v.05A73.58,73.58,0,0,0,59.11,14.9h0A80.44,80.44,0,0,0,47,18.13C18.35,28,16.1,53.31,15.76,56.16a1.68,1.68,0,0,0,0,.26,18.7,18.7,0,0,1,23.15-.21l1,0c12.64-7.73,28.87-2,33.6,0v7.49a1.33,1.33,0,0,0,2.65,0v-7.6c5-2.5,19.93-8.48,34,.14l1.05,0a18.72,18.72,0,0,1,23.16.21Zm-25.52-3.22c0-.1,0-.22-.06-.35-16.25-9-32.47-.06-33.48.51a1.08,1.08,0,0,0-.19,0c-1.65-.82-19.77-9.35-36.56-.34l-.2-.13c.2-1.93,4.85-27.44,25.72-34.14h0a34.26,34.26,0,0,1,11.1-1.65h0a29,29,0,0,1,8.75,1.4h0c18.67,5.93,24,29.47,24.86,34.38h0s0,.16.06.35,0,.36.06.45S108.88,53.17,108.87,52.94Z"/><path class="cls-3" d="M73.09,46.63a1.94,1.94,0,0,0,1-1.85c.1-1.5.07-2.24.07-3.8-.16,0-1.66-.17-2.88-.42A8.46,8.46,0,0,1,65,34a19.49,19.49,0,0,1-.36-3.13c-.07-1.58,0-2.53,0-4.11,0-1.21.32-1.69-.84-1.69a1.6,1.6,0,0,0-.42.05,5.86,5.86,0,0,0-2.79,3,8,8,0,0,0,.1,4.38,1.24,1.24,0,0,1-.19,1l-1.21,1.8c-.28.43-.57.85-.82,1.29a.59.59,0,0,0,.14.78,4.33,4.33,0,0,0,.94.58c.36.17.47.31.37.7a2,2,0,0,1-.1.32A.72.72,0,0,0,60,40l.34.27a2.12,2.12,0,0,0-.15.21.57.57,0,0,0,.18.84.61.61,0,0,1,.35.54c0,.34,0,.69,0,1a1.79,1.79,0,0,0,1.79,1.83l2.84.16a1.25,1.25,0,0,1,.37.09,2.71,2.71,0,0,1,1.07.89,3.5,3.5,0,0,1,.47,1.31c0,.26.15.32.39.32h2.91A5,5,0,0,0,71,47c.09-.11.32-.14.49-.17.35,0,.88-.1,1.23-.13C72.84,46.72,73,46.65,73.09,46.63Z"/><path class="cls-1" d="M89.83,23.91c-1.63.07-3.63.35-4.15,1.51a3.41,3.41,0,0,0-.32,1A17.44,17.44,0,0,0,85,29.13c-.14,2-.13,4-.31,6a4.88,4.88,0,0,1-5.38,4.06.39.39,0,0,1-.32-.39V26.64a2.09,2.09,0,0,1,1.81-1.94c.48-.08,1-.13,1.44-.2v-.82H72.09v.82c.47.07,1,.12,1.44.2a2.09,2.09,0,0,1,1.81,1.94V38.76a.39.39,0,0,1-.32.39,4.88,4.88,0,0,1-5.38-4.06c-.18-2-.18-4-.31-6a17.44,17.44,0,0,0-.39-2.69,3.39,3.39,0,0,0-.33-1c-.51-1.16-2.52-1.44-4.14-1.51H64a3.83,3.83,0,0,0-.67.08v.49l.61,0c1.16,0,1.73.47,1.76,1.68,0,1.59,0,3.17.06,4.75A20.89,20.89,0,0,0,66,33.63a7.23,7.23,0,0,0,5.6,5.81c1,.23,2.08.42,3.12.64.21,0,.4.11.56.15,0,1.56.08,3.07,0,4.57s-.42,2.66-3,2.79a1.78,1.78,0,0,0-.55,0v0H82.53l0,0a1.78,1.78,0,0,0-.55,0c-2.55-.13-2.88-1.34-3-2.79s0-3,0-4.57c.15,0,.35-.11.55-.15,1-.22,2.09-.41,3.13-.64a7.24,7.24,0,0,0,5.6-5.81,20.89,20.89,0,0,0,.29-2.73c.06-1.58,0-3.16.06-4.75,0-1.21.59-1.68,1.76-1.68l.61,0V24a3.83,3.83,0,0,0-.67-.08Z"/><rect class="cls-4" x="73.93" y="61.63" width="1.91" height="4.79" rx="0.96"/><circle class="cls-4" cx="46.84" cy="60.74" r="0.79"/><circle class="cls-4" cx="102.92" cy="61.15" r="0.79"/><path class="cls-3" d="M114.67,81.62c-.71-7.09-4.72-24-4.72-24s.28,4.87-2.52,22.54c-3,18.92-23.65,35.17-23.65,35.17s7.41-2.2,11.94-4,12.55-4.83,21.88-14.9c15.82-17.06,15.82-36.06,15.82-36.06C130.85,69.07,115.1,85.84,114.67,81.62Z"/><path class="cls-3" d="M121.17,62.92c-2.82-.66-5.86,1.84-6.78,5.6s.63,7.34,3.46,8,5.85-1.85,6.77-5.61S124,63.58,121.17,62.92Z"/><path class="cls-3" d="M40.74,80.42c-2.31-17.94-1.5-22.83-1.5-22.83s-2.73,17.89-5.55,24.76c-1.72,4.21-15-13.28-17.4-22A60.88,60.88,0,0,0,30.82,96.43c8.57,10.07,15.94,13.13,20.1,14.9A90.56,90.56,0,0,0,62.3,114.8S43.18,99.39,40.74,80.42Z"/><path class="cls-3" d="M28.36,64.49c-2.6.66-4,4.24-3.17,8s3.63,6.27,6.22,5.61,4-4.24,3.17-8S31,63.83,28.36,64.49Z"/><path class="cls-2" d="M64.18,80.9c-6.27-.45-17.34-20-17.34-20S47,95.39,74,115l-.46-54.15S67.18,81.12,64.18,80.9Z"/><path class="cls-2" d="M61.37,62.51c-2.65.34-4.42,3.53-3.95,7.12s3,6.24,5.62,5.9S67.45,72,67,68.41,64,62.17,61.37,62.51Z"/><path class="cls-2" d="M85,81.08c-3,.16-8.82-20.34-8.82-20.34L75.77,115c27-19.63,27.15-54.16,27.15-54.16S92,80.7,85,81.08Z"/><path class="cls-2" d="M88.19,63.21c-2.65-.34-5.16,2.3-5.63,5.89s1.31,6.79,4,7.13,5.16-2.3,5.62-5.9S90.83,63.55,88.19,63.21Z"/><circle class="cls-3" cx="16.29" cy="60.37" r="0.79"/><circle class="cls-3" cx="39.3" cy="58.2" r="0.79"/><circle class="cls-3" cx="109.82" cy="58.37" r="0.79"/><circle class="cls-3" cx="133.42" cy="60.37" r="0.79"/></svg>